<svg xmlns="http://www.w3.org/2000/svg" xmlns:xlink="http://www.w3.org/1999/xlink" width="500" zoomAndPan="magnify" viewBox="0 0 375 374.999991" height="500" preserveAspectRatio="xMidYMid meet" version="1.0"><defs><g/><clipPath id="b4b7665fe1"><path d="M 17.179688 17.179688 L 357.820312 17.179688 L 357.820312 357.820312 L 17.179688 357.820312 Z M 17.179688 17.179688 " clip-rule="nonzero"/></clipPath><clipPath id="1f6a34ec5b"><path d="M 187.5 17.179688 C 93.4375 17.179688 17.179688 93.4375 17.179688 187.5 C 17.179688 281.5625 93.4375 357.820312 187.5 357.820312 C 281.5625 357.820312 357.820312 281.5625 357.820312 187.5 C 357.820312 93.4375 281.5625 17.179688 187.5 17.179688 Z M 187.5 17.179688 " clip-rule="nonzero"/></clipPath><clipPath id="fc2ee0bcfc"><path d="M 95.453125 179 L 279 179 L 279 323.890625 L 95.453125 323.890625 Z M 95.453125 179 " clip-rule="nonzero"/></clipPath><clipPath id="abc3161e57"><path d="M 105 196 L 270 196 L 270 323.890625 L 105 323.890625 Z M 105 196 " clip-rule="nonzero"/></clipPath></defs><g clip-path="url(#b4b7665fe1)"><g clip-path="url(#1f6a34ec5b)"><path fill="#ffdce0" d="M 17.179688 17.179688 L 357.820312 17.179688 L 357.820312 357.820312 L 17.179688 357.820312 Z M 17.179688 17.179688 " fill-opacity="1" fill-rule="nonzero"/></g></g><g clip-path="url(#fc2ee0bcfc)"><path fill="#8fd9d9" d="M 275.804688 196.886719 C 274.640625 206.765625 272.359375 216.296875 270.160156 225.804688 C 267.792969 236.054688 265.347656 246.164062 262.921875 256.171875 C 260.507812 266.113281 257.945312 275.914062 255.449219 285.613281 C 252.9375 295.375 250.746094 305.164062 247.8125 314.59375 C 247.265625 316.367188 245.6875 317.238281 243.90625 317.417969 C 243.820312 317.925781 243.609375 318.421875 243.238281 318.867188 C 240.425781 322.226562 234.703125 321.796875 230.273438 322.121094 C 225.707031 322.460938 221.132812 322.726562 216.546875 322.929688 C 207.324219 323.335938 198.066406 323.484375 188.796875 323.371094 C 179.367188 323.25 169.929688 322.84375 160.476562 322.125 C 155.847656 321.777344 151.222656 321.355469 146.597656 320.867188 C 142.015625 320.390625 137.195312 320.015625 132.769531 318.511719 C 131.007812 317.914062 129.957031 316.527344 129.65625 315.09375 C 128.945312 314.722656 128.332031 314.191406 127.894531 313.457031 C 122.691406 304.703125 119.539062 294.605469 116.757812 285.066406 C 115.246094 279.871094 113.925781 274.621094 112.714844 269.328125 C 111.601562 266.054688 110.519531 262.761719 109.484375 259.445312 C 103.332031 239.796875 98.792969 219.394531 97.78125 198.625 C 97.121094 196.117188 96.429688 193.625 95.683594 191.136719 C 95.441406 190.328125 95.796875 189.683594 96.378906 189.308594 C 96.449219 188.730469 96.796875 188.21875 97.519531 187.964844 C 104.363281 185.589844 112.597656 185.542969 120.023438 184.914062 C 127.886719 184.246094 135.785156 183.726562 143.660156 183.050781 C 171.039062 180.710938 198.789062 180.085938 226.511719 179.988281 C 233.359375 179.960938 240.210938 179.992188 247.066406 180.066406 C 253.625 180.140625 260.496094 179.746094 267.023438 180.578125 C 271.988281 181.214844 276.875 183.5625 278.246094 188.445312 C 279.199219 191.867188 277.859375 194.546875 275.804688 196.886719 " fill-opacity="1" fill-rule="nonzero"/></g><path fill="#754246" d="M 269.398438 190.726562 C 268.628906 191.847656 267.246094 192.582031 265.820312 192.660156 C 265.390625 192.898438 264.949219 193.121094 264.46875 193.296875 C 262.886719 193.878906 261.246094 194.367188 259.613281 194.828125 C 256.765625 195.636719 253.878906 196.351562 250.9375 196.84375 C 245.210938 197.789062 239.421875 198.386719 233.597656 198.789062 C 232.015625 199.039062 230.433594 199.269531 228.84375 199.496094 C 216.148438 201.28125 203.253906 202.210938 190.335938 202.238281 C 164.398438 202.308594 138.472656 199.167969 113.253906 192.019531 C 108.769531 190.746094 108.488281 186.042969 110.761719 183.507812 C 110.625 182.945312 110.734375 182.324219 111.214844 181.722656 C 118.734375 172.308594 129.226562 165.726562 140.648438 161.140625 C 162.925781 152.199219 187.878906 151.800781 211.9375 156.425781 C 232.675781 160.417969 257.976562 167.53125 269.398438 186.640625 C 269.570312 186.921875 269.703125 187.203125 269.800781 187.472656 C 270.488281 188.582031 270.535156 189.90625 269.398438 190.726562 " fill-opacity="1" fill-rule="nonzero"/><path fill="#f58992" d="M 259.929688 175.316406 C 259.859375 175.46875 259.78125 175.621094 259.699219 175.769531 C 259.308594 176.648438 258.832031 177.5 258.253906 178.3125 C 255.355469 182.417969 250.894531 184.566406 246.277344 186.136719 C 241.488281 187.765625 236.613281 189.164062 231.695312 190.347656 C 212.179688 195.042969 191.621094 196.058594 171.738281 193.34375 C 161.765625 191.980469 151.894531 189.703125 142.320312 186.574219 C 132.917969 183.503906 123.386719 179.671875 115.398438 173.71875 C 113.457031 172.273438 113.902344 169.914062 115.355469 168.691406 C 114.5625 166.230469 114.664062 163.390625 115.941406 160.859375 C 118.363281 156.054688 123.386719 154.289062 127.875 155.523438 C 128.582031 150.324219 131.175781 145.4375 135.453125 142.203125 C 138.695312 139.746094 142.707031 138.332031 146.632812 138.417969 C 145.496094 135.617188 145.492188 132.527344 146.902344 129.71875 C 148.628906 126.277344 151.953125 123.78125 155.652344 122.84375 C 157.929688 122.265625 160.070312 122.300781 162.179688 122.628906 C 161.5625 119.71875 162.3125 116.222656 163.488281 113.90625 C 165.609375 109.75 169.59375 107.398438 174.15625 106.886719 C 178.457031 106.40625 184.902344 108.304688 188.59375 105.5 C 193.136719 102.042969 191.429688 95.628906 189.367188 90.863281 C 187.207031 90.023438 184.875 89.566406 182.640625 89.488281 C 180.753906 89.421875 180.863281 86.960938 182.160156 86.21875 C 189.925781 81.761719 199.339844 87.007812 203.324219 94.199219 C 204.339844 96.03125 204.945312 98.09375 205.183594 100.175781 C 205.335938 101.535156 205.117188 103.46875 205.28125 105.132812 C 205.421875 106.503906 205.054688 107.867188 204.246094 108.980469 C 204.242188 108.988281 204.238281 108.996094 204.234375 109 C 204.238281 109.011719 204.238281 109.011719 204.238281 109.019531 C 206.378906 109.386719 208.519531 110.324219 210.621094 110.824219 C 212.550781 111.285156 214.496094 111.671875 216.421875 112.175781 C 219.773438 113.058594 223.140625 114.488281 225.496094 117.132812 C 228.097656 120.050781 229.054688 124.371094 227.894531 127.875 C 233.53125 129.375 238.796875 132.339844 240.933594 138.148438 C 242.019531 141.097656 241.820312 145.027344 240.292969 147.96875 C 243.136719 148.367188 246.03125 149.632812 248.230469 150.851562 C 252.378906 153.15625 255.863281 156.554688 258.203125 160.691406 C 260.617188 164.96875 262.105469 170.636719 259.929688 175.316406 " fill-opacity="1" fill-rule="nonzero"/><g clip-path="url(#abc3161e57)"><path fill="#41676c" d="M 156.292969 259.574219 C 158.09375 273.386719 159.300781 304.441406 163.15625 319.675781 C 160.03125 319.269531 156.90625 318.800781 153.789062 318.265625 C 150.253906 301.527344 142.914062 273.792969 139.164062 257.832031 C 135.496094 242.214844 132.863281 226.234375 128.820312 210.707031 C 132.179688 212.410156 135.855469 209.675781 138.867188 208.128906 C 143.90625 205.539062 146.042969 209.160156 149.035156 212.472656 C 150.195312 213.765625 151.425781 214.632812 152.980469 215.046875 C 152.714844 222.3125 153.394531 229.695312 153.949219 236.925781 C 154.53125 244.496094 155.308594 252.042969 156.292969 259.574219 Z M 266.109375 197.78125 C 264.226562 198.257812 263.792969 199.9375 262.796875 201.34375 C 261.320312 203.433594 258.742188 203.421875 256.59375 202.402344 C 255.484375 201.878906 254.433594 201.273438 253.210938 201.074219 C 249.351562 200.464844 247.941406 203.527344 245.890625 206.121094 C 241.960938 211.074219 237.824219 205.082031 233.183594 205.054688 C 229.59375 205.035156 227.648438 208.125 225.433594 210.441406 C 223.4375 212.539062 221.390625 213.335938 218.671875 211.929688 C 216.988281 211.058594 215.480469 209.746094 213.667969 209.144531 C 209.054688 207.636719 206.742188 213.484375 202.5 211.855469 C 199.746094 210.804688 197.28125 208.625 194.6875 211.328125 C 193.960938 212.082031 193.636719 213.148438 192.933594 213.902344 C 190.449219 216.570312 188.253906 213.328125 186.832031 211.738281 C 185.601562 210.359375 184.183594 209.195312 182.234375 209.273438 C 179.855469 209.371094 178.171875 211.074219 176.457031 212.5 C 174.863281 213.816406 173.210938 215.039062 171.011719 214.578125 C 170.695312 214.511719 170.394531 214.410156 170.097656 214.292969 C 170.054688 214.148438 169.972656 214.027344 169.816406 213.957031 C 168.894531 213.535156 168.265625 213.070312 167.601562 212.285156 C 166.90625 211.460938 166.242188 210.574219 165.429688 209.859375 C 164.882812 209.375 164.066406 208.773438 163.269531 208.585938 C 159.609375 207.242188 155.199219 209.476562 153.585938 213.316406 C 150.097656 212.558594 148.777344 208.34375 146.035156 206.398438 C 144.09375 205.015625 141.894531 204.957031 139.703125 205.757812 C 136.417969 206.953125 133.238281 210.609375 129.628906 208.882812 C 126.6875 207.472656 126.378906 203.8125 123.859375 201.839844 C 122.40625 200.695312 120.734375 200.339844 119.070312 201.238281 C 118.253906 201.683594 117.714844 202.800781 116.914062 203.136719 C 116.398438 203.777344 115.6875 203.734375 114.789062 203.015625 C 113.277344 203.207031 112.421875 202.566406 112.214844 201.09375 C 112.066406 200.75 111.964844 200.386719 111.808594 200.042969 C 111.0625 198.40625 110.09375 196.707031 108.082031 196.582031 C 106.789062 196.5 105.957031 196.992188 105.503906 198.175781 C 105.347656 198.585938 105.933594 198.875 106.214844 198.589844 C 107.25 198.566406 108.289062 198.546875 109.324219 198.527344 L 110.511719 200.59375 C 110.773438 201.160156 110.921875 201.777344 111.1875 202.34375 C 111.503906 203.019531 111.855469 203.71875 112.375 204.273438 C 113.410156 205.371094 114.773438 205.910156 116.242188 205.40625 C 118.828125 204.519531 119.722656 200.921875 122.972656 203.171875 C 125.078125 204.625 125.5 207.574219 127.191406 209.464844 C 129.023438 225.707031 133.179688 241.925781 136.882812 257.804688 C 140.589844 273.691406 146.613281 301.570312 152.203125 317.980469 C 148.507812 317.308594 144.820312 316.554688 141.152344 315.695312 C 140.359375 306.75 136.796875 297.746094 134.371094 289.125 C 131.761719 279.859375 129.15625 270.59375 126.546875 261.324219 C 121.328125 242.765625 115.820312 224.335938 110.144531 205.917969 C 109.972656 205.347656 109.105469 205.582031 109.253906 206.160156 C 113.996094 224.84375 118.886719 243.4375 124.089844 262 C 126.617188 271.011719 129.144531 280.027344 131.671875 289.039062 C 134.089844 297.660156 135.742188 307.199219 139.601562 315.335938 C 137.402344 314.808594 135.199219 314.25 133.011719 313.652344 C 132.332031 313.472656 132.0625 314.480469 132.722656 314.703125 C 139.339844 316.875 152.917969 320.027344 152.917969 320.027344 L 152.929688 320.070312 L 154.003906 320.242188 L 163.773438 321.890625 L 165.058594 322.066406 L 176.28125 323.242188 L 177.980469 323.359375 L 193.535156 323.773438 L 194.585938 323.753906 C 194.585938 323.753906 201.933594 323.578125 204.414062 323.402344 C 207.445312 323.203125 216.574219 322.136719 216.574219 322.136719 L 219.511719 321.738281 L 230.058594 319.941406 L 231.476562 319.652344 L 240.976562 317.464844 L 242.664062 317.027344 C 242.664062 317.027344 245.332031 316.308594 246.65625 315.925781 C 248.0625 315.523438 247.46875 313.316406 246.054688 313.722656 C 245.121094 313.992188 244.1875 314.246094 243.25 314.5 C 246.90625 298.660156 253.316406 270.097656 255.425781 258.113281 C 257.757812 244.875 260.351562 231.589844 261.917969 218.238281 C 261.972656 217.804688 261.273438 217.726562 261.171875 218.136719 C 257.90625 231.539062 255.671875 245.265625 253.203125 258.839844 C 251.046875 270.667969 244.054688 299.441406 241.382812 314.996094 C 238.242188 315.8125 235.09375 316.554688 231.933594 317.214844 C 234.871094 301.453125 235.550781 296.023438 239.128906 278.621094 C 242.964844 259.929688 247.378906 241.292969 252.523438 222.910156 C 252.738281 222.136719 251.554688 221.808594 251.320312 222.578125 C 245.738281 241.085938 240.824219 259.722656 236.84375 278.640625 C 233.1875 296.035156 231.488281 301.285156 230.230469 317.554688 C 226.835938 318.230469 223.429688 318.824219 220.019531 319.316406 C 223.53125 302.328125 225.332031 291.347656 229.078125 273.492188 C 233.070312 254.449219 237.980469 235.632812 242.222656 216.652344 C 242.316406 216.238281 241.726562 216.078125 241.59375 216.476562 C 235.34375 235.0625 230.894531 254.367188 226.84375 273.535156 C 223.074219 291.367188 220.644531 302.488281 217.070312 319.730469 C 213.300781 320.222656 209.523438 320.609375 205.742188 320.890625 C 210.488281 302.621094 214.8125 291.847656 218.769531 272.941406 C 222.84375 253.449219 227.082031 233.976562 230.605469 214.371094 C 230.710938 213.777344 229.832031 213.515625 229.683594 214.121094 C 224.941406 233.4375 220.898438 252.929688 216.707031 272.371094 C 212.597656 291.410156 207.898438 302.140625 204.558594 320.972656 C 201.449219 321.191406 198.332031 321.328125 195.21875 321.398438 C 197.289062 313.171875 198.050781 304.503906 199.289062 296.121094 C 200.546875 287.558594 201.796875 278.996094 203.042969 270.429688 C 205.46875 253.671875 207.929688 236.898438 209.691406 220.054688 C 209.738281 219.601562 209.066406 219.5 208.980469 219.945312 C 205.742188 236.917969 203.214844 254.027344 200.667969 271.109375 C 199.429688 279.453125 198.179688 287.796875 196.949219 296.140625 C 195.71875 304.5 193.960938 312.976562 193.597656 321.429688 C 191.421875 321.464844 189.25 321.460938 187.066406 321.421875 C 187.691406 317.953125 187.722656 314.324219 187.964844 310.828125 C 188.265625 306.523438 188.5625 302.214844 188.863281 297.90625 C 189.449219 289.515625 190.027344 281.117188 190.589844 272.71875 C 191.742188 255.726562 192.84375 238.726562 193.335938 221.699219 C 193.347656 221.238281 192.683594 221.257812 192.640625 221.699219 C 190.804688 238.457031 189.554688 255.261719 188.367188 272.078125 C 187.785156 280.253906 187.214844 288.4375 186.648438 296.617188 C 186.355469 300.925781 186.054688 305.230469 185.757812 309.535156 C 185.492188 313.425781 184.933594 317.464844 185.113281 321.382812 C 182.800781 321.324219 180.488281 321.230469 178.175781 321.089844 C 178.304688 318.113281 178.023438 315.082031 177.914062 312.132812 C 177.757812 307.8125 177.585938 303.492188 177.421875 299.167969 C 177.097656 290.527344 176.773438 281.882812 176.449219 273.242188 C 175.792969 255.9375 174.96875 238.664062 173.988281 221.378906 C 173.953125 220.75 172.988281 220.734375 173 221.378906 C 173.261719 238.671875 173.667969 255.953125 174.257812 273.242188 C 174.542969 281.664062 174.828125 290.09375 175.113281 298.523438 C 175.261719 302.84375 175.40625 307.164062 175.558594 311.488281 C 175.667969 314.589844 175.574219 317.820312 175.921875 320.949219 C 172.210938 320.691406 168.507812 320.339844 164.804688 319.886719 C 162.890625 304.042969 160.398438 272.699219 158.511719 258.320312 C 157.550781 250.992188 156.707031 243.648438 155.992188 236.296875 C 155.316406 229.304688 155.03125 222.242188 154.167969 215.273438 C 154.175781 215.28125 154.1875 215.28125 154.199219 215.28125 C 154.609375 215.324219 154.984375 214.960938 155.097656 214.59375 C 156.339844 210.652344 159.707031 209.597656 162.925781 210.644531 C 163.054688 210.691406 163.183594 210.746094 163.320312 210.816406 C 164.238281 211.273438 164.890625 212.152344 165.574219 212.886719 C 166.292969 213.65625 167.210938 214.4375 168.234375 214.839844 C 169.179688 215.5625 170.320312 216.035156 171.617188 216.144531 C 177.378906 216.601562 180.789062 206.804688 186.125 213.46875 C 187.855469 215.640625 190.539062 218.304688 193.382812 216.207031 C 195.226562 214.851562 195.4375 212.042969 198.289062 211.941406 C 200.109375 211.875 201.980469 214.101562 203.925781 214.292969 C 205.34375 214.429688 206.472656 213.933594 207.609375 213.121094 C 208.507812 212.484375 209.296875 211.457031 210.304688 211.007812 C 212.039062 210.238281 213.539062 210.953125 215.015625 211.824219 C 217.722656 213.410156 220.335938 215.59375 223.625 214.285156 C 227.101562 212.898438 228.378906 208.210938 231.957031 207.191406 C 236.039062 206.023438 239.324219 210.953125 243.515625 210.164062 C 245.183594 209.855469 246.382812 208.726562 247.386719 207.433594 C 248.0625 206.558594 248.609375 205.597656 249.292969 204.730469 C 251.222656 202.285156 253.765625 203.269531 256.132812 204.320312 C 257.757812 205.035156 259.554688 205.878906 261.375 205.351562 C 262.195312 205.113281 262.832031 204.640625 263.414062 204.03125 C 263.640625 203.789062 263.855469 203.453125 264.039062 203.175781 C 264.277344 202.761719 264.503906 202.34375 264.714844 201.910156 C 265.125 200.886719 266.015625 200.378906 267.394531 200.378906 C 266.46875 201.554688 268.113281 202.851562 269.027344 201.644531 C 270.554688 199.636719 268.304688 197.222656 266.109375 197.78125 " fill-opacity="1" fill-rule="nonzero"/></g><path fill="#f9b8c0" d="M 154.753906 143.183594 C 161.820312 145.496094 170.867188 144.160156 178.035156 142.523438 C 195.570312 138.511719 211.433594 129.1875 218.621094 115.96875 C 219.136719 115.015625 218.460938 115.136719 217.707031 116.003906 C 216.144531 117.800781 213.339844 121.9375 211.605469 123.589844 C 210.695312 122.179688 209 117.765625 206.820312 117.148438 C 202.441406 115.914062 198.824219 117.019531 199.273438 110.78125 C 199.386719 109.277344 200.535156 107.640625 200.777344 106.105469 C 201.300781 102.777344 200.304688 100.070312 198.367188 97.167969 C 197.992188 96.609375 196.839844 97.050781 197.074219 97.632812 C 198.589844 101.496094 198.5 105.007812 197.085938 108.894531 C 196.363281 110.902344 196.839844 112.183594 197.53125 114.292969 C 197.976562 115.667969 198.609375 116.347656 200.050781 117.230469 C 202.835938 118.929688 206.601562 117.167969 208.675781 120.667969 C 210.382812 123.546875 207.234375 126.90625 207.289062 127.09375 C 201.773438 131.542969 194.507812 135.628906 187.082031 138.398438 C 175.78125 142.621094 141.957031 142.964844 149.449219 131.554688 C 150.171875 130.445312 148.832031 128.742188 147.9375 130 C 144.195312 135.257812 147.984375 140.96875 154.753906 143.183594 Z M 237.941406 146.472656 C 231.195312 148.070312 225.015625 150.605469 218.109375 152.484375 C 210.511719 154.550781 202.347656 156.3125 193.667969 157.6875 C 177.488281 160.253906 145.503906 165.085938 131.132812 156.140625 C 130.265625 155.597656 128.503906 156.015625 129.152344 156.628906 C 139.902344 166.777344 170.640625 163.09375 186.738281 161.070312 C 196.941406 159.792969 206.566406 158.054688 215.46875 155.917969 C 223.984375 153.875 233.636719 151.414062 239.59375 147.796875 C 240.675781 147.140625 239.519531 146.097656 237.941406 146.472656 Z M 192.359375 170.203125 C 180.535156 174.769531 167.636719 177.171875 153.929688 177.328125 C 149.207031 177.382812 143.5625 177.335938 137.996094 176.667969 C 150.183594 181.84375 163.136719 185.167969 176.292969 182.601562 C 177.316406 182.398438 177.933594 183.652344 176.917969 183.871094 C 155.894531 188.480469 134.640625 179.46875 116.605469 169.707031 C 114.351562 168.484375 115.988281 165.667969 118.28125 166.902344 C 118.632812 167.089844 118.988281 167.28125 119.339844 167.46875 C 142.460938 177.296875 169.480469 176.039062 191.542969 168.996094 C 192.398438 168.722656 193.175781 169.886719 192.359375 170.203125 " fill-opacity="1" fill-rule="nonzero"/><g fill="#000000" fill-opacity="1"><g transform="translate(83.514834, 133.234846)"><g><path d="M -7.28125 -6.65625 C -4.859375 -5.75 -2.265625 -5.578125 0.296875 -5.5625 C 1.921875 -5.53125 3.5 -5.84375 5.03125 -6.453125 C 5.796875 -6.78125 6.59375 -7.109375 7.1875 -7.765625 C 9.171875 -9.859375 9.96875 -12.21875 9 -15.0625 C 8.78125 -15.78125 8.5 -16.46875 8.15625 -17.140625 C 7.53125 -18.390625 6.796875 -19.59375 6.0625 -20.78125 C 4.765625 -22.875 3.53125 -25.046875 2.109375 -27.09375 C 1.6875 -27.671875 1.53125 -27.671875 1 -27.125 C 0.734375 -26.796875 0.671875 -26.484375 0.921875 -26.125 C 1.0625 -25.875 1.25 -25.625 1.390625 -25.34375 C 3.359375 -22.234375 5.1875 -19.046875 6.90625 -15.8125 C 7.515625 -14.65625 8 -13.484375 8.046875 -12.203125 C 8.125 -10.171875 6.796875 -8.59375 4.765625 -8.390625 C 3.828125 -8.296875 2.953125 -8.359375 2.015625 -8.515625 C -0.5 -8.875 -2.8125 -9.765625 -5.078125 -10.859375 C -8.40625 -12.4375 -11.421875 -14.4375 -13.828125 -17.265625 C -14.609375 -18.21875 -15.328125 -19.21875 -15.78125 -20.375 C -16.265625 -21.5 -16.09375 -22.53125 -15.21875 -23.375 C -14.171875 -24.375 -12.921875 -24.859375 -11.484375 -24.9375 C -10.609375 -24.984375 -9.765625 -24.875 -8.953125 -24.65625 C -8.515625 -24.53125 -8.234375 -24.65625 -8 -25.0625 C -7.359375 -26.171875 -7.390625 -26.390625 -8.5625 -27.0625 C -8.71875 -27.15625 -8.90625 -27.28125 -9.09375 -27.390625 C -13.515625 -29.703125 -18.296875 -26.53125 -18.875 -22.515625 C -19.28125 -19.828125 -18.828125 -17.34375 -17.453125 -15 C -15.75 -12.046875 -13.453125 -9.875 -10.53125 -8.234375 C -9.46875 -7.6875 -8.421875 -7.078125 -7.28125 -6.65625 Z M -7.28125 -6.65625 "/></g></g></g><g fill="#000000" fill-opacity="1"><g transform="translate(93.283656, 116.40695)"><g><path d="M 4.5 -21.53125 C 3.9375 -21.25 3.890625 -21.140625 4.21875 -20.40625 C 4.9375 -18.78125 5.703125 -17.21875 6.375 -15.625 C 7.203125 -13.703125 8.0625 -11.84375 8.609375 -9.84375 C 8.703125 -9.515625 8.90625 -9.171875 8.734375 -8.796875 C 8.25 -8.90625 7.9375 -9.171875 7.609375 -9.4375 C 6.484375 -10.296875 5.375 -11.265625 4.359375 -12.25 C 1.5 -14.890625 -1.359375 -17.5 -4.34375 -20 C -4.671875 -20.28125 -5.015625 -20.546875 -5.4375 -20.75 C -5.640625 -20.828125 -5.84375 -20.921875 -6.015625 -20.71875 C -6.65625 -19.9375 -7.40625 -19.203125 -7.75 -18.25 C -7.890625 -17.90625 -8 -17.734375 -8.265625 -17.515625 C -8.90625 -17.015625 -9.53125 -16.5 -9.921875 -15.734375 C -11.15625 -13.453125 -10.890625 -11.21875 -9.78125 -9.015625 C -8.84375 -7.171875 -7.453125 -5.703125 -5.796875 -4.515625 C -5.015625 -3.9375 -4.15625 -3.453125 -3.140625 -3.15625 C -2.203125 -2.828125 -1.421875 -3.15625 -0.796875 -3.90625 C -0.25 -4.5 -0.046875 -5.21875 -0.15625 -6.015625 C -0.265625 -6.765625 -0.484375 -7.5625 -0.765625 -8.3125 C -1.046875 -9.046875 -1.3125 -9.796875 -1.609375 -10.609375 C -1.28125 -10.65625 -1.1875 -10.4375 -1.015625 -10.328125 C 0.109375 -9.5 1.28125 -8.59375 2.53125 -7.90625 C 3.890625 -7.078125 5.28125 -6.3125 6.84375 -6 C 8.96875 -5.578125 10.90625 -7.421875 10.59375 -9.578125 C 10.5 -10.375 10.265625 -11.109375 9.921875 -11.859375 C 8.59375 -14.984375 7.140625 -18.09375 5.59375 -21.15625 C 5.25 -21.875 5.1875 -21.890625 4.5 -21.53125 Z M -6.265625 -15.875 C -5.96875 -15.609375 -5.671875 -15.265625 -5.53125 -14.890625 C -4.0625 -12.09375 -2.71875 -9.25 -1.671875 -6.265625 C -1.53125 -5.828125 -1.15625 -5.28125 -1.65625 -4.9375 C -2.125 -4.578125 -2.453125 -5.203125 -2.828125 -5.4375 C -2.96875 -5.5625 -3.140625 -5.703125 -3.3125 -5.828125 C -5.296875 -7.53125 -6.9375 -9.5625 -7.8125 -12.109375 C -8.03125 -12.8125 -8.234375 -13.53125 -8.3125 -14.3125 C -8.34375 -14.734375 -8.3125 -15.109375 -8.125 -15.515625 C -7.71875 -16.40625 -6.96875 -16.59375 -6.265625 -15.875 Z M -6.265625 -15.875 "/></g></g></g><g fill="#000000" fill-opacity="1"><g transform="translate(104.091194, 103.134892)"><g><path d="M -6.6875 -17.6875 C -4.53125 -13.984375 -2.015625 -10.578125 0.875 -7.453125 C 2.390625 -5.796875 4.15625 -4.421875 6.34375 -3.671875 C 6.78125 -3.53125 7.234375 -3.40625 7.734375 -3.359375 C 9.296875 -3.140625 11.625 -5.1875 11.734375 -7 C 11.796875 -8.5 11.609375 -9.953125 11.234375 -11.390625 C 10.390625 -14.734375 8.9375 -17.90625 7.453125 -21.015625 C 7.25 -21.375 7.0625 -21.75 6.84375 -22.09375 C 6.78125 -22.28125 6.671875 -22.4375 6.46875 -22.390625 C 6 -22.328125 5.703125 -22 5.375 -21.703125 C 5.140625 -21.484375 5.3125 -21.15625 5.4375 -20.9375 C 6.046875 -19.453125 6.65625 -17.9375 7.3125 -16.453125 C 8.265625 -14.3125 9.1875 -12.125 9.65625 -9.8125 C 9.90625 -8.6875 10.09375 -7.578125 9.96875 -6.421875 C 9.859375 -5.640625 9.671875 -5.53125 8.96875 -5.921875 C 7.8125 -6.5625 6.78125 -7.46875 5.8125 -8.421875 C 3.578125 -10.703125 1.59375 -13.15625 -0.203125 -15.8125 C -1.234375 -17.390625 -2.234375 -18.96875 -3.359375 -20.546875 C -4.140625 -21.640625 -4.875 -21.71875 -5.90625 -20.78125 C -6.59375 -20.140625 -7.328125 -19.484375 -8.0625 -18.890625 C -8.703125 -18.359375 -9.40625 -17.875 -10.1875 -17.703125 C -11.09375 -17.53125 -11.734375 -16.96875 -12.4375 -16.484375 C -12.875 -16.1875 -13.015625 -15.859375 -12.671875 -15.359375 C -12.515625 -15.125 -12.40625 -14.890625 -12.25 -14.6875 C -11.203125 -13.390625 -10.203125 -12.015625 -9.140625 -10.671875 C -6.875 -7.921875 -4.765625 -5.0625 -2.828125 -2.0625 C -2.328125 -1.265625 -1.828125 -0.484375 -1.21875 0.171875 C -1.046875 0.359375 -0.921875 0.5625 -0.609375 0.453125 C 0.375 0.109375 0.609375 -0.515625 0.140625 -1.421875 C 0.0625 -1.5 0.015625 -1.59375 -0.046875 -1.6875 C -2.46875 -5.875 -5.109375 -9.90625 -8.15625 -13.6875 C -8.78125 -14.5 -9.390625 -15.328125 -10.109375 -16.203125 C -9 -16.78125 -8.09375 -17.515625 -7.125 -18.234375 C -6.828125 -18.046875 -6.78125 -17.859375 -6.6875 -17.6875 Z M -6.6875 -17.6875 "/></g></g></g><g fill="#000000" fill-opacity="1"><g transform="translate(116.007169, 92.375066)"><g><path d="M -8.09375 -9.0625 C -6.328125 -7 -4.390625 -5.125 -2.125 -3.578125 C -0.921875 -2.734375 0.359375 -2.046875 1.8125 -1.65625 C 2.890625 -1.359375 3.921875 -1.46875 4.90625 -2.03125 C 6.4375 -2.90625 7.28125 -4.140625 7.359375 -5.90625 C 7.390625 -6.421875 7.375 -6.953125 7.375 -7.4375 C 7.234375 -10.34375 6.296875 -13.03125 5.59375 -15.796875 C 5.5625 -15.921875 5.5 -16 5.453125 -16.0625 C 5.40625 -16.1875 5.25 -16.265625 5.125 -16.25 C 4.421875 -16.25 4 -15.71875 4.125 -15.046875 C 4.1875 -14.828125 4.234375 -14.625 4.28125 -14.453125 C 4.75 -12.046875 5.359375 -9.671875 5.625 -7.28125 C 5.71875 -6.515625 5.765625 -5.75 5.59375 -4.984375 C 5.3125 -3.546875 4.5625 -3.1875 3.265625 -3.859375 C 3.203125 -3.90625 3.0625 -3.953125 2.984375 -4.03125 C 1.015625 -5.34375 -0.75 -6.90625 -2.21875 -8.765625 C -2.46875 -9.0625 -2.578125 -9.390625 -2.5625 -9.8125 C -2.515625 -14 -3.28125 -18.0625 -4.296875 -22.09375 C -4.75 -23.921875 -5.453125 -25.640625 -6.4375 -27.21875 C -7.125 -28.34375 -7.9375 -29.3125 -9.078125 -30.015625 C -10.6875 -30.984375 -12.515625 -30.75 -13.78125 -29.390625 C -14.8125 -28.3125 -15.1875 -26.984375 -15.28125 -25.53125 C -15.34375 -23.828125 -15.015625 -22.1875 -14.546875 -20.59375 C -13.5625 -17.21875 -11.890625 -14.265625 -9.765625 -11.1875 C -9.328125 -10.625 -8.75 -9.828125 -8.09375 -9.0625 Z M -4.78125 -11.75 C -8.09375 -15.828125 -10.71875 -20.3125 -12.09375 -25.40625 C -12.265625 -26.078125 -12.421875 -26.734375 -12.4375 -27.453125 C -12.453125 -28.46875 -12.03125 -28.703125 -11.109375 -28.21875 C -9.984375 -27.640625 -9.125 -26.765625 -8.4375 -25.703125 C -7.015625 -23.5 -6.046875 -21.109375 -5.453125 -18.5625 C -5 -16.59375 -4.609375 -14.65625 -4.34375 -12.6875 C -4.34375 -12.296875 -4.265625 -11.890625 -4.234375 -11.40625 C -4.609375 -11.40625 -4.671875 -11.59375 -4.78125 -11.75 Z M -4.78125 -11.75 "/></g></g></g><g fill="#000000" fill-opacity="1"><g transform="translate(124.963326, 85.960443)"><g><path d="M 3.78125 -14.609375 C 3.140625 -14.46875 3.0625 -14.4375 3.09375 -13.6875 C 3.125 -13.578125 3.125 -13.40625 3.125 -13.28125 C 3.296875 -10.625 3.46875 -8.015625 3.625 -5.359375 C 3.65625 -4.875 3.671875 -4.421875 3.671875 -3.953125 C 3.625 -3.296875 3.328125 -3.15625 2.78125 -3.46875 C 2.234375 -3.78125 1.765625 -4.21875 1.375 -4.65625 C 0.359375 -5.875 -0.46875 -7.265625 -1.328125 -8.578125 C -2.890625 -10.984375 -4.109375 -13.609375 -5.390625 -16.1875 C -6.015625 -17.484375 -6.046875 -17.46875 -7.359375 -16.734375 C -7.421875 -16.703125 -7.515625 -16.640625 -7.609375 -16.59375 C -7.9375 -16.4375 -8.0625 -16.203125 -7.96875 -15.828125 C -7.90625 -15.53125 -7.90625 -15.234375 -7.796875 -14.921875 C -7.015625 -12.25 -6 -9.6875 -4.484375 -7.125 C -3.796875 -5.90625 -2.90625 -4.609375 -1.796875 -3.453125 C -1.078125 -2.734375 -0.328125 -2.125 0.609375 -1.75 C 2.9375 -0.84375 5.546875 -2.625 5.515625 -5.09375 C 5.5 -5.765625 5.4375 -6.46875 5.3125 -7.140625 C 5.046875 -9.40625 4.78125 -11.625 4.5 -13.890625 C 4.421875 -14.296875 4.390625 -14.71875 3.78125 -14.609375 Z M -7.671875 -18.828125 C -6.84375 -19.359375 -6.609375 -20.125 -7.078125 -20.890625 C -7.53125 -21.65625 -8.328125 -21.8125 -9.21875 -21.234375 C -9.90625 -20.828125 -10.078125 -19.828125 -9.609375 -19.09375 C -9.171875 -18.359375 -8.546875 -18.296875 -7.671875 -18.828125 Z M -7.671875 -18.828125 "/></g></g></g><g fill="#000000" fill-opacity="1"><g transform="translate(132.019038, 81.356307)"><g><path d="M 14.34375 -18.046875 C 13.71875 -17.90625 13.828125 -17.5 13.859375 -17.078125 C 14.078125 -14.6875 14.25 -12.296875 14.078125 -9.890625 C 14.03125 -9.09375 13.984375 -8.3125 13.765625 -7.546875 C 13.65625 -7.09375 13.578125 -6.546875 13.03125 -6.421875 C 12.453125 -6.25 12.21875 -6.8125 11.875 -7.140625 C 11.8125 -7.21875 11.75 -7.34375 11.65625 -7.46875 C 10.046875 -9.625 9.21875 -12.125 8.375 -14.625 C 7.9375 -15.984375 7.40625 -17.25 6.6875 -18.484375 C 6.21875 -19.359375 5.65625 -20.171875 4.8125 -20.796875 C 3.671875 -21.640625 2.359375 -21.65625 1.21875 -20.78125 C 0.125 -19.984375 -0.421875 -18.859375 -0.71875 -17.609375 C -1.15625 -15.96875 -1.265625 -14.328125 -1.28125 -12.703125 C -1.296875 -12.375 -1.234375 -12.046875 -1.46875 -11.578125 C -1.640625 -11.96875 -1.78125 -12.28125 -1.90625 -12.578125 C -2.640625 -14.234375 -3.390625 -15.90625 -4.125 -17.546875 C -4.234375 -17.796875 -4.359375 -18.046875 -4.515625 -18.3125 C -4.71875 -18.6875 -5.015625 -18.8125 -5.453125 -18.609375 C -5.984375 -18.3125 -6.546875 -18.0625 -7.109375 -17.8125 C -7.546875 -17.625 -7.734375 -17.3125 -7.5625 -16.859375 C -7.53125 -16.640625 -7.5 -16.453125 -7.453125 -16.25 C -6.296875 -11.765625 -4.625 -7.484375 -2.546875 -3.359375 C -2 -2.25 -1.28125 -1.171875 -0.609375 -0.125 C -0.046875 0.765625 0.109375 0.796875 1.046875 0.28125 C 1.359375 0.109375 1.65625 -0.03125 1.96875 -0.1875 C 2.796875 -0.5625 2.78125 -0.609375 2.578125 -1.515625 C 1.765625 -4.984375 1.125 -8.4375 0.84375 -11.96875 C 0.671875 -14.15625 0.859375 -16.359375 1.4375 -18.484375 C 1.53125 -18.859375 1.609375 -19.359375 2.0625 -19.453125 C 2.609375 -19.578125 2.875 -19.109375 3.109375 -18.765625 C 3.890625 -17.6875 4.53125 -16.53125 5.015625 -15.28125 C 5.921875 -12.96875 6.671875 -10.59375 7.796875 -8.375 C 8.359375 -7.328125 9.03125 -6.296875 9.875 -5.46875 C 10.359375 -4.984375 10.9375 -4.59375 11.65625 -4.578125 C 13.015625 -4.578125 14.59375 -5.59375 15.140625 -6.796875 C 15.34375 -7.34375 15.5 -7.84375 15.59375 -8.40625 C 16.0625 -11.40625 15.84375 -14.421875 15.34375 -17.40625 C 15.21875 -18.109375 15.03125 -18.140625 14.34375 -18.046875 Z M 14.34375 -18.046875 "/></g></g></g><g fill="#000000" fill-opacity="1"><g transform="translate(148.093217, 74.062275)"><g><path d="M 16.09375 -15 C 15.484375 -15.078125 15.375 -15.015625 15.234375 -14.234375 C 14.875 -12.484375 14.578125 -10.765625 14.21875 -9.09375 C 13.796875 -7.03125 13.40625 -5.015625 12.703125 -3.078125 C 12.609375 -2.75 12.5625 -2.34375 12.21875 -2.140625 C 11.875 -2.515625 11.78125 -2.90625 11.65625 -3.328125 C 11.234375 -4.671875 10.890625 -6.09375 10.625 -7.5 C 9.796875 -11.296875 8.984375 -15.078125 8 -18.828125 C 7.875 -19.25 7.765625 -19.671875 7.546875 -20.078125 C 7.40625 -20.265625 7.28125 -20.453125 7.03125 -20.390625 C 6.046875 -20.109375 5.046875 -19.953125 4.1875 -19.390625 C 3.90625 -19.1875 3.6875 -19.09375 3.359375 -19.078125 C 2.546875 -19.046875 1.75 -18.96875 0.984375 -18.578125 C -1.359375 -17.4375 -2.421875 -15.4375 -2.78125 -13.015625 C -3.09375 -10.96875 -2.796875 -8.96875 -2.140625 -7.03125 C -1.828125 -6.109375 -1.390625 -5.21875 -0.75 -4.390625 C -0.15625 -3.59375 0.65625 -3.390625 1.609375 -3.65625 C 2.375 -3.828125 2.96875 -4.28125 3.34375 -5 C 3.671875 -5.703125 3.953125 -6.453125 4.171875 -7.234375 C 4.375 -7.984375 4.578125 -8.75 4.8125 -9.59375 C 5.109375 -9.4375 5.046875 -9.203125 5.125 -9.03125 C 5.578125 -7.6875 6 -6.28125 6.625 -5 C 7.265625 -3.546875 7.9375 -2.09375 9.046875 -0.9375 C 10.546875 0.609375 13.1875 0.21875 14.1875 -1.71875 C 14.546875 -2.421875 14.796875 -3.15625 14.953125 -3.953125 C 15.65625 -7.28125 16.28125 -10.65625 16.78125 -14.046875 C 16.90625 -14.84375 16.859375 -14.890625 16.09375 -15 Z M 4.046875 -16.59375 C 4.125 -16.1875 4.15625 -15.75 4.078125 -15.359375 C 3.671875 -12.21875 3.125 -9.125 2.234375 -6.09375 C 2.109375 -5.640625 2.09375 -4.984375 1.5 -4.984375 C 0.90625 -4.96875 1 -5.671875 0.8125 -6.078125 C 0.765625 -6.265625 0.703125 -6.46875 0.65625 -6.6875 C 0.015625 -9.21875 -0.15625 -11.8125 0.609375 -14.40625 C 0.828125 -15.09375 1.078125 -15.8125 1.46875 -16.484375 C 1.671875 -16.84375 1.921875 -17.140625 2.3125 -17.359375 C 3.15625 -17.859375 3.890625 -17.578125 4.046875 -16.59375 Z M 4.046875 -16.59375 "/></g></g></g><g fill="#000000" fill-opacity="1"><g transform="translate(165.115367, 69.643782)"><g><path d="M 0.359375 -16.78125 C 0.84375 -16.78125 1.046875 -17.015625 1.140625 -17.4375 C 1.359375 -18.484375 1.328125 -19.53125 1.09375 -20.5625 C 1.046875 -20.84375 0.859375 -20.96875 0.578125 -20.921875 C 0.296875 -20.875 0.046875 -20.828125 -0.25 -20.78125 C -0.46875 -20.734375 -0.625 -20.640625 -0.640625 -20.390625 C -0.53125 -19.1875 -0.8125 -18.03125 -1.015625 -16.734375 C -0.484375 -16.75 -0.046875 -16.796875 0.359375 -16.78125 Z M 0.359375 -16.78125 "/></g></g></g><g fill="#000000" fill-opacity="1"><g transform="translate(170.436237, 68.53364)"><g><path d="M 2.1875 -16.15625 C 3.328125 -13.984375 4.46875 -11.8125 5.390625 -9.59375 C 5.890625 -8.359375 5.890625 -8.359375 4.703125 -7.65625 C 3.390625 -6.90625 2.171875 -6.046875 1.390625 -4.6875 C 0.046875 -2.328125 1.09375 0.265625 3.703125 0.921875 C 5.671875 1.421875 7.5 1.0625 9.15625 -0.203125 C 10.046875 -0.890625 10.609375 -1.828125 10.8125 -2.96875 C 10.96875 -4.015625 10.984375 -5.0625 10.703125 -6.140625 C 10.546875 -6.6875 10.453125 -7.1875 10.296875 -7.71875 C 10.03125 -8.640625 10.03125 -8.640625 10.90625 -9.078125 C 11.40625 -9.3125 11.875 -9.5625 12.375 -9.828125 C 13.25 -10.375 14.046875 -11.03125 14.796875 -11.71875 C 15 -11.921875 15.25 -12.109375 15.0625 -12.421875 C 14.859375 -12.734375 14.53125 -12.78125 14.171875 -12.671875 C 13.859375 -12.59375 13.625 -12.375 13.421875 -12.171875 C 12.46875 -11.40625 11.46875 -10.78125 10.359375 -10.234375 C 9.578125 -9.8125 9.53125 -9.8125 9.203125 -10.65625 C 7.890625 -13.765625 6.03125 -16.515625 4.046875 -19.203125 C 3.546875 -19.875 2.921875 -20.453125 2.1875 -20.90625 C 1.109375 -21.5625 0.390625 -21.21875 0.21875 -20 C 0.078125 -19.109375 -0.03125 -18.21875 -0.140625 -17.328125 C -0.84375 -12.015625 -1.375 -6.640625 -2.671875 -1.421875 C -2.859375 -0.75 -3 -0.078125 -3.15625 0.609375 C -3.3125 1.0625 -3.109375 1.1875 -2.671875 1.21875 C -1.875 1.296875 -1.65625 1.21875 -1.375 0.3125 C -0.046875 -3.984375 0.9375 -8.328125 1.375 -12.765625 C 1.484375 -14.015625 1.53125 -15.25 1.8125 -16.671875 C 2.015625 -16.390625 2.140625 -16.28125 2.1875 -16.15625 Z M 7.0625 -1.59375 C 6.703125 -0.28125 5.640625 0.09375 4.515625 -0.609375 C 3.4375 -1.28125 2.96875 -2.4375 3.328125 -3.71875 C 3.734375 -5.140625 4.734375 -6.046875 5.921875 -6.8125 C 6.265625 -6.96875 6.453125 -6.84375 6.546875 -6.53125 C 6.859375 -5.59375 7.125 -4.671875 7.21875 -3.609375 C 7.296875 -2.984375 7.25 -2.28125 7.0625 -1.59375 Z M 7.0625 -1.59375 "/></g></g></g><g fill="#000000" fill-opacity="1"><g transform="translate(183.553232, 67.419932)"><g/></g></g><g fill="#000000" fill-opacity="1"><g transform="translate(193.533332, 67.172384)"><g><path d="M 3.46875 -9.234375 C 3.515625 -6.640625 4.328125 -4.1875 5.28125 -1.796875 C 5.859375 -0.265625 6.71875 1.078125 7.859375 2.265625 C 8.4375 2.859375 9.046875 3.484375 9.875 3.78125 C 12.5625 4.84375 15.046875 4.6875 17.328125 2.75 C 17.90625 2.28125 18.453125 1.765625 18.953125 1.1875 C 19.875 0.140625 20.703125 -0.96875 21.546875 -2.09375 C 23.015625 -4.09375 24.5625 -6.046875 25.921875 -8.125 C 26.3125 -8.71875 26.25 -8.875 25.546875 -9.171875 C 25.15625 -9.296875 24.84375 -9.21875 24.59375 -8.859375 C 24.421875 -8.65625 24.234375 -8.375 24.03125 -8.140625 C 21.890625 -5.140625 19.609375 -2.265625 17.25 0.53125 C 16.40625 1.515625 15.5 2.40625 14.328125 2.921875 C 12.453125 3.765625 10.515625 3.109375 9.546875 1.296875 C 9.125 0.46875 8.859375 -0.375 8.65625 -1.296875 C 8.0625 -3.765625 8.015625 -6.234375 8.171875 -8.75 C 8.4375 -12.4375 9.140625 -15.96875 10.875 -19.265625 C 11.46875 -20.34375 12.140625 -21.375 13.03125 -22.234375 C 13.90625 -23.109375 14.9375 -23.328125 16.03125 -22.828125 C 17.34375 -22.234375 18.265625 -21.25 18.875 -19.921875 C 19.25 -19.15625 19.453125 -18.328125 19.546875 -17.484375 C 19.59375 -17.03125 19.8125 -16.828125 20.28125 -16.765625 C 21.546875 -16.578125 21.734375 -16.671875 21.9375 -18 C 21.96875 -18.1875 22 -18.40625 22.03125 -18.625 C 22.546875 -23.59375 17.8125 -26.875 13.875 -25.90625 C 11.25 -25.265625 9.09375 -23.921875 7.421875 -21.78125 C 5.3125 -19.109375 4.15625 -16.171875 3.734375 -12.84375 C 3.609375 -11.65625 3.4375 -10.46875 3.46875 -9.234375 Z M 3.46875 -9.234375 "/></g></g></g><g fill="#000000" fill-opacity="1"><g transform="translate(212.795742, 69.990774)"><g><path d="M 13.5625 -6.375 C 13.546875 -6.328125 13.546875 -6.296875 13.546875 -6.296875 C 13.5 -6.28125 13.5 -6.28125 13.46875 -6.28125 C 13.203125 -5.34375 12.8125 -4.46875 12.46875 -3.59375 C 11.5625 -1.265625 10.8125 1.078125 10.375 3.53125 C 10.21875 4.453125 10.171875 5.390625 10.21875 6.3125 C 10.28125 7.4375 10.84375 8.203125 11.9375 8.609375 C 13.03125 8.984375 14.015625 8.953125 14.859375 8.046875 C 15.21875 7.609375 15.59375 7.21875 15.921875 6.765625 C 17.84375 4.25 19.578125 1.546875 21.359375 -1.078125 C 22.09375 -2.109375 22.078125 -2.109375 20.890625 -2.609375 C 20.515625 -2.78125 20.21875 -2.703125 20.03125 -2.390625 C 19.75 -2.015625 19.453125 -1.6875 19.1875 -1.3125 C 17.546875 1.03125 15.84375 3.359375 14.15625 5.703125 C 13.875 6.046875 13.640625 6.484375 13.140625 6.78125 C 13.109375 6.21875 13.1875 5.75 13.328125 5.3125 C 13.625 4.25 13.921875 3.203125 14.25 2.140625 C 15.625 -2.109375 17.46875 -6.171875 19 -10.359375 C 19.203125 -10.921875 19.390625 -11.515625 19.5 -12.125 C 19.578125 -12.609375 19.390625 -12.859375 18.953125 -12.953125 C 18.484375 -13.0625 18.03125 -13.125 17.578125 -13.328125 C 16.96875 -13.546875 16.609375 -13.359375 16.234375 -12.890625 C 14.921875 -11.28125 13.578125 -9.6875 12.265625 -8.046875 C 10.609375 -6.0625 9.03125 -4.0625 7.109375 -2.328125 C 6.8125 -2.09375 6.5625 -1.78125 6.203125 -1.640625 C 5.6875 -1.375 5.390625 -1.515625 5.34375 -2.046875 C 5.265625 -2.765625 5.375 -3.5 5.515625 -4.203125 C 6 -6.796875 6.96875 -9.265625 8 -11.71875 C 8.65625 -13.34375 9.25 -14.984375 9.859375 -16.609375 C 10.078125 -17.234375 10.03125 -17.328125 9.4375 -17.46875 C 8.609375 -17.6875 7.84375 -17.859375 7.03125 -18.046875 C 6.765625 -18.078125 6.5625 -18 6.4375 -17.78125 C 6.328125 -17.5 6.171875 -17.296875 6.046875 -17.015625 C 4.53125 -13.75 3.375 -10.34375 2.421875 -6.859375 C 2.0625 -5.5625 1.84375 -4.1875 2.03125 -2.796875 C 2.15625 -2.109375 2.34375 -1.484375 2.859375 -0.96875 C 4.1875 0.28125 6.390625 0.453125 7.90625 -0.515625 C 8.65625 -1 9.28125 -1.578125 9.828125 -2.25 C 10.8125 -3.34375 11.78125 -4.453125 12.75 -5.5625 C 12.96875 -5.796875 13.109375 -6.171875 13.453125 -6.234375 C 13.5 -6.28125 13.515625 -6.34375 13.5625 -6.375 Z M 13.5625 -6.375 "/></g></g></g><g fill="#000000" fill-opacity="1"><g transform="translate(228.916944, 74.998122)"><g><path d="M 10.5625 -11.078125 C 11.109375 -12.140625 11.703125 -13.1875 12.25 -14.265625 C 12.484375 -14.75 12.703125 -15.265625 12.890625 -15.765625 C 13.046875 -16.1875 12.953125 -16.5 12.5 -16.640625 C 12.03125 -16.828125 11.515625 -17.046875 11.046875 -17.21875 C 10.078125 -17.578125 10.078125 -17.578125 9.421875 -16.796875 C 9.28125 -16.625 9.15625 -16.484375 9.03125 -16.296875 C 6.78125 -13.140625 4.6875 -9.859375 2.875 -6.453125 C 0.796875 -2.4375 -0.859375 1.71875 -2.34375 5.984375 C -2.59375 6.703125 -2.78125 7.46875 -2.96875 8.265625 C -3.09375 8.71875 -2.921875 9.046875 -2.4375 9.203125 C -1.9375 9.390625 -1.421875 9.625 -0.921875 9.828125 C 0 10.171875 0.21875 10.125 0.5 9.203125 C 1.53125 6.171875 3.109375 3.46875 4.375 0.5625 C 4.65625 -0.078125 4.6875 -0.09375 5.296875 0.296875 C 7.8125 1.6875 10.3125 1.546875 12.78125 0.265625 C 14.265625 -0.5 15.640625 -1.453125 16.6875 -2.734375 C 17.21875 -3.359375 17.71875 -3.4375 18.46875 -3.25 C 19.546875 -2.984375 20.671875 -2.796875 21.75 -2.5625 C 22.078125 -2.484375 22.296875 -2.578125 22.40625 -2.890625 C 22.5 -3.234375 22.40625 -3.484375 22.046875 -3.640625 C 21.984375 -3.65625 21.890625 -3.703125 21.765625 -3.71875 C 21 -3.9375 20.234375 -4.171875 19.484375 -4.375 C 18.28125 -4.6875 18.28125 -4.6875 18.734375 -5.875 C 19.109375 -6.9375 19.28125 -7.96875 19.125 -9.109375 C 18.859375 -11.46875 17.015625 -12.90625 14.640625 -12.625 C 13.71875 -12.53125 12.8125 -12.171875 11.953125 -11.703125 C 11.546875 -11.46875 11.125 -11.25 10.71875 -11 C 10.671875 -11.03125 10.625 -11.046875 10.5625 -11.078125 Z M 14.015625 -10.71875 C 14.359375 -10.953125 14.75 -11.078125 15.15625 -11.15625 C 16.046875 -11.3125 16.5625 -10.984375 16.71875 -10.109375 C 16.75 -9.84375 16.734375 -9.5625 16.71875 -9.296875 C 16.578125 -8.03125 16 -6.9375 15.421875 -5.84375 C 15.265625 -5.515625 15 -5.4375 14.671875 -5.515625 C 12.71875 -5.890625 10.75 -6.0625 8.71875 -5.953125 C 10.234375 -7.875 12.0625 -9.390625 14.015625 -10.71875 Z M 13.90625 -3.90625 C 12.46875 -2.375 10.8125 -1.15625 8.75 -0.484375 C 8.453125 -0.390625 8.15625 -0.34375 7.859375 -0.3125 C 7.046875 -0.296875 6.515625 -0.546875 6.265625 -1.1875 C 5.953125 -1.90625 6.0625 -2.53125 6.5625 -3.09375 C 6.875 -3.40625 7.234375 -3.640625 7.59375 -3.796875 C 9.671875 -4.609375 11.8125 -4.5 13.953125 -4.203125 C 13.9375 -4.0625 13.96875 -3.96875 13.90625 -3.90625 Z M 13.90625 -3.90625 "/></g></g></g><g fill="#000000" fill-opacity="1"><g transform="translate(243.131341, 81.841312)"><g><path d="M 14.625 -12.03125 C 14.953125 -12.203125 15.28125 -12.375 15.671875 -12.421875 C 16.125 -12.53125 16.390625 -12.359375 16.515625 -11.9375 C 16.65625 -11.359375 16.65625 -10.75 16.609375 -10.1875 C 16.46875 -9.5 16.34375 -8.84375 16.203125 -8.140625 C 16.140625 -7.859375 16.171875 -7.625 16.5 -7.515625 C 16.75 -7.390625 16.984375 -7.265625 17.234375 -7.203125 C 17.578125 -7.0625 17.84375 -7.140625 17.984375 -7.5 C 18.5625 -8.59375 18.921875 -9.78125 18.765625 -11.0625 C 18.546875 -12.484375 17.78125 -13.53125 16.484375 -14.09375 C 15.234375 -14.578125 13.984375 -14.59375 12.703125 -14.328125 C 10.78125 -13.921875 9.09375 -12.96875 7.703125 -11.609375 C 6.3125 -10.3125 5.25 -8.734375 4.359375 -7.0625 C 3.328125 -5.1875 2.5625 -3.171875 2.34375 -0.96875 C 2.28125 0.015625 2.265625 1.03125 2.5625 2 C 3.40625 5.078125 6.6875 6.578125 9.546875 5.15625 C 10.078125 4.90625 10.578125 4.609375 11.0625 4.296875 C 12.515625 3.390625 13.953125 2.46875 15.421875 1.5625 C 16.484375 0.875 17.53125 0.171875 18.59375 -0.53125 C 19 -0.78125 19.09375 -1.078125 18.78125 -1.453125 C 18.703125 -1.578125 18.609375 -1.734375 18.515625 -1.890625 C 18.34375 -2.15625 18.140625 -2.265625 17.828125 -2.0625 C 17.6875 -1.96875 17.546875 -1.890625 17.390625 -1.765625 C 14.90625 -0.171875 12.328125 1.328125 9.734375 2.828125 C 8.8125 3.375 7.828125 3.8125 6.828125 4.078125 C 6.078125 4.28125 5.671875 3.984375 5.671875 3.21875 C 5.6875 2.34375 5.828125 1.5 6.015625 0.65625 C 6.671875 -2.03125 7.890625 -4.5 8.828125 -6.046875 C 11 -9.453125 12.46875 -10.953125 14.625 -12.03125 Z M 14.625 -12.03125 "/></g></g></g><g fill="#000000" fill-opacity="1"><g transform="translate(253.567848, 88.224082)"><g><path d="M 21.484375 4.75 C 21.203125 4.1875 21.09375 4.140625 20.359375 4.46875 C 18.734375 5.15625 17.140625 5.90625 15.546875 6.5625 C 13.625 7.375 11.75 8.203125 9.734375 8.71875 C 9.421875 8.8125 9.0625 9.015625 8.703125 8.828125 C 8.8125 8.359375 9.0625 8.046875 9.359375 7.71875 C 10.234375 6.609375 11.203125 5.515625 12.203125 4.5 C 14.875 1.671875 17.515625 -1.15625 20.046875 -4.109375 C 20.328125 -4.4375 20.609375 -4.78125 20.8125 -5.171875 C 20.890625 -5.390625 20.984375 -5.609375 20.78125 -5.78125 C 20 -6.4375 19.296875 -7.171875 18.328125 -7.546875 C 18.015625 -7.6875 17.8125 -7.796875 17.609375 -8.046875 C 17.125 -8.703125 16.59375 -9.328125 15.84375 -9.75 C 13.578125 -11.015625 11.34375 -10.765625 9.140625 -9.671875 C 7.265625 -8.765625 5.796875 -7.40625 4.59375 -5.75 C 4 -4.96875 3.5 -4.109375 3.1875 -3.109375 C 2.859375 -2.15625 3.15625 -1.390625 3.90625 -0.75 C 4.5 -0.21875 5.21875 0.015625 6.015625 -0.09375 C 6.78125 -0.1875 7.5625 -0.390625 8.3125 -0.65625 C 9.0625 -0.9375 9.8125 -1.203125 10.609375 -1.484375 C 10.671875 -1.15625 10.4375 -1.0625 10.359375 -0.890625 C 9.515625 0.234375 8.578125 1.375 7.875 2.625 C 7.03125 3.96875 6.25 5.359375 5.921875 6.921875 C 5.46875 9.03125 7.296875 10.984375 9.453125 10.703125 C 10.25 10.609375 11 10.390625 11.75 10.0625 C 14.875 8.765625 18.015625 7.359375 21.09375 5.859375 C 21.8125 5.515625 21.828125 5.4375 21.484375 4.75 Z M 15.953125 -6.078125 C 15.671875 -5.796875 15.328125 -5.515625 14.953125 -5.34375 C 12.125 -3.921875 9.28125 -2.609375 6.296875 -1.609375 C 5.84375 -1.46875 5.296875 -1.09375 4.953125 -1.59375 C 4.59375 -2.078125 5.234375 -2.390625 5.46875 -2.765625 C 5.59375 -2.90625 5.734375 -3.078125 5.875 -3.25 C 7.609375 -5.203125 9.625 -6.8125 12.203125 -7.65625 C 12.90625 -7.890625 13.625 -8.0625 14.390625 -8.140625 C 14.828125 -8.1875 15.21875 -8.125 15.609375 -7.9375 C 16.5 -7.515625 16.671875 -6.765625 15.953125 -6.078125 Z M 15.953125 -6.078125 "/></g></g></g><g fill="#000000" fill-opacity="1"><g transform="translate(266.715894, 99.251539)"><g><path d="M 5.9375 1.484375 C 5.921875 5.640625 9.0625 8.734375 13.21875 8.484375 C 16.046875 8.328125 18.671875 7.34375 21.28125 6.203125 C 21.546875 6.078125 21.640625 5.890625 21.5 5.5625 C 21.0625 4.5625 20.671875 4.359375 19.609375 4.71875 C 17.65625 5.375 15.703125 6.109375 13.671875 6.5 C 12.828125 6.65625 12.015625 6.78125 11.140625 6.671875 C 9.171875 6.484375 8.3125 5.546875 8.4375 3.578125 C 8.546875 1.890625 9.140625 0.296875 9.40625 -1.453125 C 10.125 -0.9375 10.71875 -0.4375 11.390625 -0.109375 C 13.984375 1.140625 16.6875 1.3125 19.4375 0.71875 C 20.671875 0.46875 21.65625 -0.125 22.53125 -1.015625 C 23.671875 -2.125 23.796875 -3.671875 23 -5.046875 C 22.265625 -6.203125 21.203125 -6.828125 19.96875 -7.234375 C 18.53125 -7.640625 17.0625 -7.640625 15.5625 -7.546875 C 15.28125 -7.5 14.984375 -7.375 14.640625 -7.5625 C 16.234375 -8.921875 17.828125 -10.21875 19.453125 -11.515625 C 20.640625 -12.46875 21.78125 -13.5 22.9375 -14.546875 C 23.28125 -14.859375 23.3125 -15.09375 22.984375 -15.46875 C 22.5 -16.015625 21.9375 -16.46875 21.421875 -17 C 21.15625 -17.296875 20.84375 -17.296875 20.53125 -17.09375 C 20.078125 -16.8125 19.59375 -16.53125 19.140625 -16.21875 C 16.90625 -14.65625 14.765625 -13.015625 12.65625 -11.265625 C 8.3125 -7.75 3.859375 -4.265625 0.5 0.34375 C -0.453125 1.578125 -0.390625 1.328125 0.515625 2.328125 C 0.6875 2.515625 0.875 2.734375 1.0625 2.9375 C 1.34375 3.25 1.609375 3.296875 1.921875 3.015625 C 2.421875 2.578125 2.90625 2.140625 3.40625 1.734375 C 4.234375 1.09375 5.03125 0.484375 5.890625 -0.203125 C 6.046875 0.484375 5.90625 0.96875 5.9375 1.484375 Z M 19.84375 -5.203125 C 20.1875 -5.1875 20.5625 -5.078125 20.921875 -4.96875 C 21.625 -4.703125 21.8125 -4.171875 21.359375 -3.5625 C 21.046875 -3.109375 20.578125 -2.796875 20.09375 -2.5 C 18.984375 -1.84375 17.75 -1.796875 16.53125 -1.75 C 14.515625 -1.703125 12.78125 -2.28125 10.9375 -3.515625 C 13.921875 -4.828125 16.75 -5.515625 19.84375 -5.203125 Z M 19.84375 -5.203125 "/></g></g></g><g fill="#000000" fill-opacity="1"><g transform="translate(276.705715, 110.360432)"><g><path d="M 17.390625 6.421875 C 17.40625 5.703125 17.234375 5.46875 16.671875 5.421875 C 16.09375 5.359375 15.578125 5.390625 15.015625 5.359375 C 12.390625 5.34375 9.734375 5.25 7.125 5 C 6.640625 4.96875 6.21875 4.921875 5.78125 4.734375 C 5.171875 4.515625 4.953125 4.125 5.109375 3.453125 C 5.203125 3.015625 5.359375 2.578125 5.625 2.265625 C 6.890625 0.625 8.25 -0.921875 9.921875 -2.15625 C 10.328125 -2.453125 10.59375 -2.453125 10.984375 -2.125 C 13.3125 -0.28125 15.796875 -0.125 18.40625 -1.40625 C 19.84375 -2.15625 20.65625 -3.3125 20.671875 -4.953125 C 20.671875 -6.5625 19.6875 -7.609375 18.296875 -8.265625 C 17.015625 -8.84375 15.640625 -8.9375 14.25 -8.78125 C 11.890625 -8.453125 9.796875 -7.515625 7.796875 -6.25 C 7.15625 -5.828125 6.625 -5.328125 6.078125 -4.765625 C 4.59375 -3.328125 3.46875 -1.640625 2.90625 0.40625 C 2.203125 2.9375 4.0625 6.75 7.5625 6.828125 C 10.578125 6.921875 13.65625 6.953125 16.71875 6.890625 C 17.015625 6.890625 17.421875 6.9375 17.390625 6.421875 Z M 14.90625 -4.921875 C 15.78125 -5.25 16.703125 -5.515625 17.640625 -5.71875 C 17.9375 -5.8125 18.328125 -5.84375 18.484375 -5.515625 C 18.65625 -5.234375 18.515625 -4.953125 18.34375 -4.65625 C 18.28125 -4.609375 18.25 -4.5625 18.1875 -4.515625 C 17 -2.90625 13.890625 -2.09375 12.046875 -2.90625 C 11.875 -2.953125 11.71875 -3.078125 11.625 -3.3125 C 12.609375 -4 13.75 -4.46875 14.90625 -4.921875 Z M 14.90625 -4.921875 "/></g></g></g><g fill="#000000" fill-opacity="1"><g transform="translate(283.933729, 120.497676)"><g><path d="M 15.65625 -4.515625 C 14.140625 -2.578125 12.625 -0.6875 10.953125 1.0625 C 10.03125 2.015625 10.03125 2.015625 8.90625 1.21875 C 7.6875 0.3125 6.40625 -0.4375 4.84375 -0.625 C 2.171875 -0.90625 0.203125 1.109375 0.65625 3.765625 C 1 5.765625 2.046875 7.296875 3.890625 8.296875 C 4.875 8.828125 5.953125 8.984375 7.078125 8.703125 C 8.109375 8.421875 9.078125 8.03125 9.9375 7.328125 C 10.375 6.96875 10.796875 6.671875 11.21875 6.3125 C 11.953125 5.703125 11.953125 5.703125 12.703125 6.328125 C 13.109375 6.671875 13.546875 7.015625 13.984375 7.375 C 14.84375 7.921875 15.75 8.421875 16.6875 8.8125 C 16.96875 8.9375 17.234375 9.0625 17.453125 8.78125 C 17.65625 8.46875 17.578125 8.15625 17.328125 7.859375 C 17.109375 7.609375 16.8125 7.46875 16.5625 7.375 C 15.453125 6.8125 14.46875 6.140625 13.546875 5.359375 C 12.84375 4.796875 12.8125 4.765625 13.46875 4.125 C 15.765625 1.671875 17.546875 -1.140625 19.1875 -4.046875 C 19.625 -4.765625 19.890625 -5.578125 20.015625 -6.421875 C 20.1875 -7.671875 19.578125 -8.1875 18.390625 -7.875 C 17.5 -7.640625 16.65625 -7.375 15.796875 -7.125 C 10.65625 -5.609375 5.53125 -3.9375 0.21875 -3.015625 C -0.484375 -2.921875 -1.15625 -2.78125 -1.8125 -2.65625 C -2.296875 -2.59375 -2.328125 -2.375 -2.1875 -1.953125 C -1.921875 -1.1875 -1.78125 -1.015625 -0.84375 -1.125 C 3.625 -1.640625 7.984375 -2.515625 12.234375 -3.875 C 13.421875 -4.28125 14.578125 -4.734375 15.984375 -5.046875 C 15.8125 -4.75 15.765625 -4.609375 15.65625 -4.515625 Z M 4.296875 5.828125 C 2.953125 6.015625 2.1875 5.203125 2.375 3.875 C 2.546875 2.625 3.4375 1.734375 4.75 1.546875 C 6.203125 1.34375 7.4375 1.90625 8.609375 2.6875 C 8.90625 2.921875 8.875 3.15625 8.609375 3.375 C 7.890625 4.03125 7.140625 4.640625 6.21875 5.140625 C 5.671875 5.484375 5 5.734375 4.296875 5.828125 Z M 4.296875 5.828125 "/></g></g></g></svg>